%TF.GenerationSoftware,KiCad,Pcbnew,9.0.3*%
%TF.CreationDate,2026-08-16T19:56:59+04:00*%
%TF.ProjectId,ESP32 WROOM 32,45535033-3220-4575-924f-4f4d2033322e,rev?*%
%TF.SameCoordinates,Original*%
%TF.FileFunction,Paste,Top*%
%TF.FilePolarity,Positive*%
%FSLAX46Y46*%
G04 Gerber Fmt 4.6, Leading zero omitted, Abs format (unit mm)*
G04 Created by KiCad (PCBNEW 9.0.3) date 2026-08-16 19:56:59*
%MOMM*%
%LPD*%
G01*
G04 APERTURE LIST*
G04 Aperture macros list*
%AMRoundRect*
0 Rectangle with rounded corners*
0 $1 Rounding radius*
0 $2 $3 $4 $5 $6 $7 $8 $9 X,Y pos of 4 corners*
0 Add a 4 corners polygon primitive as box body*
4,1,4,$2,$3,$4,$5,$6,$7,$8,$9,$2,$3,0*
0 Add four circle primitives for the rounded corners*
1,1,$1+$1,$2,$3*
1,1,$1+$1,$4,$5*
1,1,$1+$1,$6,$7*
1,1,$1+$1,$8,$9*
0 Add four rect primitives between the rounded corners*
20,1,$1+$1,$2,$3,$4,$5,0*
20,1,$1+$1,$4,$5,$6,$7,0*
20,1,$1+$1,$6,$7,$8,$9,0*
20,1,$1+$1,$8,$9,$2,$3,0*%
G04 Aperture macros list end*
%ADD10RoundRect,0.237500X0.300000X0.237500X-0.300000X0.237500X-0.300000X-0.237500X0.300000X-0.237500X0*%
%ADD11R,0.900000X1.700000*%
%ADD12R,0.900000X1.500000*%
%ADD13R,1.500000X0.900000*%
%ADD14R,1.050000X1.050000*%
%ADD15RoundRect,0.237500X0.250000X0.237500X-0.250000X0.237500X-0.250000X-0.237500X0.250000X-0.237500X0*%
%ADD16RoundRect,0.237500X-0.287500X-0.237500X0.287500X-0.237500X0.287500X0.237500X-0.287500X0.237500X0*%
%ADD17RoundRect,0.237500X0.287500X0.237500X-0.287500X0.237500X-0.287500X-0.237500X0.287500X-0.237500X0*%
%ADD18RoundRect,0.150000X0.512500X0.150000X-0.512500X0.150000X-0.512500X-0.150000X0.512500X-0.150000X0*%
%ADD19RoundRect,0.087500X0.087500X-0.725000X0.087500X0.725000X-0.087500X0.725000X-0.087500X-0.725000X0*%
%ADD20RoundRect,0.150000X-0.512500X-0.150000X0.512500X-0.150000X0.512500X0.150000X-0.512500X0.150000X0*%
%ADD21RoundRect,0.237500X-0.250000X-0.237500X0.250000X-0.237500X0.250000X0.237500X-0.250000X0.237500X0*%
%ADD22RoundRect,0.237500X-0.300000X-0.237500X0.300000X-0.237500X0.300000X0.237500X-0.300000X0.237500X0*%
%ADD23R,1.350000X0.400000*%
%ADD24R,1.900000X1.500000*%
%ADD25RoundRect,0.237500X0.237500X-0.250000X0.237500X0.250000X-0.237500X0.250000X-0.237500X-0.250000X0*%
%ADD26RoundRect,0.250000X0.625000X-0.375000X0.625000X0.375000X-0.625000X0.375000X-0.625000X-0.375000X0*%
G04 APERTURE END LIST*
D10*
%TO.C,C1*%
X160500000Y-96200000D03*
X158775000Y-96200000D03*
%TD*%
D11*
%TO.C,SW2*%
X150800000Y-98500000D03*
X154200000Y-98500000D03*
%TD*%
D12*
%TO.C,U3*%
X193115000Y-97955000D03*
X191845000Y-97955000D03*
X190575000Y-97955000D03*
X189305000Y-97955000D03*
X188035000Y-97955000D03*
X186765000Y-97955000D03*
X185495000Y-97955000D03*
X184225000Y-97955000D03*
X182955000Y-97955000D03*
X181685000Y-97955000D03*
X180415000Y-97955000D03*
X179145000Y-97955000D03*
X177875000Y-97955000D03*
X176605000Y-97955000D03*
D13*
X175355000Y-100995000D03*
X175355000Y-102265000D03*
X175355000Y-103535000D03*
X175355000Y-104805000D03*
X175355000Y-106075000D03*
X175355000Y-107345000D03*
X175355000Y-108615000D03*
X175355000Y-109885000D03*
X175355000Y-111155000D03*
X175355000Y-112425000D03*
D12*
X176605000Y-115455000D03*
X177875000Y-115455000D03*
X179145000Y-115455000D03*
X180415000Y-115455000D03*
X181685000Y-115455000D03*
X182955000Y-115455000D03*
X184225000Y-115455000D03*
X185495000Y-115455000D03*
X186765000Y-115455000D03*
X188035000Y-115455000D03*
X189305000Y-115455000D03*
X190575000Y-115455000D03*
X191845000Y-115455000D03*
X193115000Y-115455000D03*
D14*
X187300000Y-104500000D03*
X185775000Y-104500000D03*
X184250000Y-104500000D03*
X187300000Y-106025000D03*
X185775000Y-106025000D03*
X184250000Y-106025000D03*
X187300000Y-107550000D03*
X185775000Y-107550000D03*
X184250000Y-107550000D03*
%TD*%
D15*
%TO.C,R7*%
X171912500Y-108214779D03*
X170087500Y-108214779D03*
%TD*%
D10*
%TO.C,C8*%
X153862500Y-95750000D03*
X152137500Y-95750000D03*
%TD*%
D16*
%TO.C,D5*%
X165449735Y-108250000D03*
X167199735Y-108250000D03*
%TD*%
D10*
%TO.C,C4*%
X171862500Y-104744867D03*
X170137500Y-104744867D03*
%TD*%
D17*
%TO.C,D3*%
X171875000Y-111500000D03*
X170125000Y-111500000D03*
%TD*%
D10*
%TO.C,C5*%
X171862500Y-103009912D03*
X170137500Y-103009912D03*
%TD*%
D18*
%TO.C,D2*%
X164637500Y-115700000D03*
X164637500Y-114750000D03*
X164637500Y-113800000D03*
X162362500Y-113800000D03*
X162362500Y-115700000D03*
%TD*%
D10*
%TO.C,C7*%
X153862500Y-117500000D03*
X152137500Y-117500000D03*
%TD*%
D19*
%TO.C,U2*%
X159000000Y-110112500D03*
X159500000Y-110112500D03*
X160000000Y-110112500D03*
X160500000Y-110112500D03*
X161000000Y-110112500D03*
X161000000Y-105887500D03*
X160500000Y-105887500D03*
X160000000Y-105887500D03*
X159500000Y-105887500D03*
X159000000Y-105887500D03*
%TD*%
D10*
%TO.C,C6*%
X164775000Y-99500000D03*
X163050000Y-99500000D03*
%TD*%
D15*
%TO.C,R5*%
X171912500Y-109949735D03*
X170087500Y-109949735D03*
%TD*%
D20*
%TO.C,U1*%
X158500000Y-97750000D03*
X158500000Y-98700000D03*
X158500000Y-99650000D03*
X160775000Y-99650000D03*
X160775000Y-97750000D03*
%TD*%
D15*
%TO.C,R4*%
X171887500Y-101274956D03*
X170062500Y-101274956D03*
%TD*%
D16*
%TO.C,D1*%
X170125000Y-99500000D03*
X171875000Y-99500000D03*
%TD*%
D21*
%TO.C,R1*%
X166587500Y-99500000D03*
X168412500Y-99500000D03*
%TD*%
D22*
%TO.C,C2*%
X158887500Y-101250000D03*
X160612500Y-101250000D03*
%TD*%
D16*
%TO.C,D4*%
X165449735Y-110000000D03*
X167199735Y-110000000D03*
%TD*%
D23*
%TO.C,J1*%
X153950000Y-105450000D03*
X153950000Y-106100000D03*
X153950000Y-106750000D03*
X153950000Y-107400000D03*
X153950000Y-108050000D03*
D24*
X151250000Y-105750000D03*
X151250000Y-107750000D03*
%TD*%
D11*
%TO.C,SW1*%
X150800000Y-115000000D03*
X154200000Y-115000000D03*
%TD*%
D25*
%TO.C,R3*%
X156000000Y-115162500D03*
X156000000Y-113337500D03*
%TD*%
D26*
%TO.C,F1*%
X165152441Y-104942676D03*
X165152441Y-102142676D03*
%TD*%
D25*
%TO.C,R2*%
X156000000Y-99412500D03*
X156000000Y-97587500D03*
%TD*%
D10*
%TO.C,C3*%
X171862500Y-106479823D03*
X170137500Y-106479823D03*
%TD*%
D15*
%TO.C,R6*%
X171912500Y-113250000D03*
X170087500Y-113250000D03*
%TD*%
M02*
