%TF.GenerationSoftware,KiCad,Pcbnew,9.0.3*%
%TF.CreationDate,2026-08-16T19:56:59+04:00*%
%TF.ProjectId,ESP32 WROOM 32,45535033-3220-4575-924f-4f4d2033322e,rev?*%
%TF.SameCoordinates,Original*%
%TF.FileFunction,Copper,L2,Bot*%
%TF.FilePolarity,Positive*%
%FSLAX46Y46*%
G04 Gerber Fmt 4.6, Leading zero omitted, Abs format (unit mm)*
G04 Created by KiCad (PCBNEW 9.0.3) date 2026-08-16 19:56:59*
%MOMM*%
%LPD*%
G01*
G04 APERTURE LIST*
%TA.AperFunction,HeatsinkPad*%
%ADD10C,0.600000*%
%TD*%
%TA.AperFunction,ComponentPad*%
%ADD11R,1.700000X1.700000*%
%TD*%
%TA.AperFunction,ComponentPad*%
%ADD12C,1.700000*%
%TD*%
%TA.AperFunction,HeatsinkPad*%
%ADD13O,1.900000X1.200000*%
%TD*%
%TA.AperFunction,HeatsinkPad*%
%ADD14C,1.450000*%
%TD*%
%TA.AperFunction,ViaPad*%
%ADD15C,0.600000*%
%TD*%
%TA.AperFunction,Conductor*%
%ADD16C,0.600000*%
%TD*%
%TA.AperFunction,Conductor*%
%ADD17C,0.500000*%
%TD*%
%TA.AperFunction,Conductor*%
%ADD18C,0.300000*%
%TD*%
%TA.AperFunction,Conductor*%
%ADD19C,0.250000*%
%TD*%
G04 APERTURE END LIST*
D10*
%TO.P,U3,39,GND*%
%TO.N,GND*%
X186537500Y-104500000D03*
X185012500Y-104500000D03*
X187300000Y-105262500D03*
X185775000Y-105262500D03*
X184250000Y-105262500D03*
X186537500Y-106025000D03*
X185012500Y-106025000D03*
X187300000Y-106787500D03*
X185775000Y-106787500D03*
X184250000Y-106787500D03*
X186537500Y-107550000D03*
X185012500Y-107550000D03*
%TD*%
D11*
%TO.P,J2,1,Pin_1*%
%TO.N,/GPIO22*%
X192700000Y-120000000D03*
D12*
%TO.P,J2,2,Pin_2*%
%TO.N,/TXD*%
X190160000Y-120000000D03*
%TO.P,J2,3,Pin_3*%
%TO.N,/RXD*%
X187620000Y-120000000D03*
%TO.P,J2,4,Pin_4*%
%TO.N,/GPIO21*%
X185080000Y-120000000D03*
%TO.P,J2,5,Pin_5*%
%TO.N,/GPIO19*%
X182540000Y-120000000D03*
%TO.P,J2,6,Pin_6*%
%TO.N,/GPIO18*%
X180000000Y-120000000D03*
%TO.P,J2,7,Pin_7*%
%TO.N,/GPIO5*%
X177460000Y-120000000D03*
%TO.P,J2,8,Pin_8*%
%TO.N,/TX*%
X174920000Y-120000000D03*
%TO.P,J2,9,Pin_9*%
%TO.N,/RX*%
X172380000Y-120000000D03*
%TO.P,J2,10,Pin_10*%
%TO.N,/GPIO4*%
X169840000Y-120000000D03*
%TO.P,J2,11,Pin_11*%
%TO.N,/GPIO2*%
X167300000Y-120000000D03*
%TO.P,J2,12,Pin_12*%
%TO.N,/GPIO15*%
X164760000Y-120000000D03*
%TO.P,J2,13,Pin_13*%
%TO.N,GND*%
X162220000Y-120000000D03*
%TO.P,J2,14,Pin_14*%
%TO.N,+3V3*%
X159680000Y-120000000D03*
%TD*%
D11*
%TO.P,J3,1,Pin_1*%
%TO.N,+5V*%
X159720000Y-93500000D03*
D12*
%TO.P,J3,2,Pin_2*%
%TO.N,GND*%
X162260000Y-93500000D03*
%TO.P,J3,3,Pin_3*%
%TO.N,/GPIO13*%
X164800000Y-93500000D03*
%TO.P,J3,4,Pin_4*%
%TO.N,/GPIO14*%
X167340000Y-93500000D03*
%TO.P,J3,5,Pin_5*%
%TO.N,/GPIO27*%
X169880000Y-93500000D03*
%TO.P,J3,6,Pin_6*%
%TO.N,/GPIO26*%
X172420000Y-93500000D03*
%TO.P,J3,7,Pin_7*%
%TO.N,/GPIO25*%
X174960000Y-93500000D03*
%TO.P,J3,8,Pin_8*%
%TO.N,/GPIO33*%
X177500000Y-93500000D03*
%TO.P,J3,9,Pin_9*%
%TO.N,/GPIO32*%
X180040000Y-93500000D03*
%TO.P,J3,10,Pin_10*%
%TO.N,/GPIO35*%
X182580000Y-93500000D03*
%TO.P,J3,11,Pin_11*%
%TO.N,/GPIO34*%
X185120000Y-93500000D03*
%TO.P,J3,12,Pin_12*%
%TO.N,/VN*%
X187660000Y-93500000D03*
%TO.P,J3,13,Pin_13*%
%TO.N,/VP*%
X190200000Y-93500000D03*
%TO.P,J3,14,Pin_14*%
%TO.N,/EN*%
X192740000Y-93500000D03*
%TD*%
D13*
%TO.P,J1,6,Shield*%
%TO.N,unconnected-(J1-Shield-Pad6)_1*%
X151250000Y-103250000D03*
D14*
%TO.N,unconnected-(J1-Shield-Pad6)*%
X153950000Y-104250000D03*
%TO.N,unconnected-(J1-Shield-Pad6)_7*%
X153950000Y-109250000D03*
D13*
%TO.N,unconnected-(J1-Shield-Pad6)_6*%
X151250000Y-110250000D03*
%TD*%
D15*
%TO.N,+3V3*%
X157530000Y-105800000D03*
%TO.N,GND*%
X193750000Y-105200000D03*
X168980285Y-106290437D03*
X165494336Y-111152398D03*
X193750000Y-113750000D03*
X193750000Y-100925000D03*
X193750000Y-103775000D03*
X160500000Y-111750000D03*
X159740562Y-98684362D03*
X165855563Y-115690014D03*
X169000000Y-104750000D03*
X193750000Y-102350000D03*
X170161195Y-98420681D03*
X163359483Y-118516888D03*
X193750000Y-112325000D03*
X168965640Y-100869871D03*
X155500000Y-108250000D03*
X152141053Y-118572631D03*
X193750000Y-108050000D03*
X193750000Y-106625000D03*
X163055089Y-100608590D03*
X193750000Y-109475000D03*
X162000000Y-101250000D03*
X193750000Y-99500000D03*
X152145120Y-94645120D03*
X193750000Y-110900000D03*
X174018872Y-101015732D03*
X163512689Y-97025379D03*
%TO.N,+3V3*%
X167500000Y-100750000D03*
X173250000Y-103000000D03*
X179750000Y-102250000D03*
X157000000Y-113250000D03*
X162500000Y-98250000D03*
X156028692Y-100667732D03*
%TO.N,/BOOT*%
X174000000Y-116750000D03*
X156500000Y-116750000D03*
%TO.N,/EN*%
X190575000Y-95175000D03*
X156000000Y-96250000D03*
%TO.N,/GPIO21*%
X186000000Y-113500000D03*
X168250000Y-110000000D03*
%TO.N,/GPIO22*%
X168250000Y-108250000D03*
X190250000Y-113250000D03*
%TO.N,/GPIO4*%
X173000000Y-113250000D03*
X177250000Y-113750000D03*
%TO.N,/RXD*%
X179250000Y-109375000D03*
X162173262Y-107299000D03*
%TO.N,/TXD*%
X162250000Y-108250000D03*
X178000000Y-108574997D03*
%TO.N,/GPIO13*%
X177750000Y-100750000D03*
X173250000Y-97750000D03*
%TD*%
D16*
%TO.N,+3V3*%
X156726424Y-99970000D02*
X156028692Y-100667732D01*
X160780000Y-99970000D02*
X156726424Y-99970000D01*
X162500000Y-98250000D02*
X160780000Y-99970000D01*
D17*
X179000000Y-103000000D02*
X173250000Y-103000000D01*
D16*
X157375000Y-104625000D02*
X156028692Y-103278692D01*
D17*
X179750000Y-102250000D02*
X179000000Y-103000000D01*
D16*
X167500000Y-100750000D02*
X169750000Y-103000000D01*
X157500000Y-112750000D02*
X157500000Y-104750000D01*
X169750000Y-103000000D02*
X173250000Y-103000000D01*
X157000000Y-113250000D02*
X157500000Y-112750000D01*
X156028692Y-103278692D02*
X156028692Y-100667732D01*
X157500000Y-104750000D02*
X157375000Y-104625000D01*
D18*
%TO.N,/BOOT*%
X174000000Y-116750000D02*
X156500000Y-116750000D01*
D19*
%TO.N,/EN*%
X190575000Y-95175000D02*
X157075000Y-95175000D01*
X157075000Y-95175000D02*
X156000000Y-96250000D01*
%TO.N,/GPIO21*%
X169000000Y-110750000D02*
X168250000Y-110000000D01*
X186000000Y-113500000D02*
X183250000Y-110750000D01*
X183250000Y-110750000D02*
X169000000Y-110750000D01*
%TO.N,/GPIO4*%
X176750000Y-113250000D02*
X173000000Y-113250000D01*
X177250000Y-113750000D02*
X176750000Y-113250000D01*
%TO.N,/TXD*%
X176925003Y-107500000D02*
X178000000Y-108574997D01*
X163000000Y-108250000D02*
X163750000Y-107500000D01*
X162250000Y-108250000D02*
X163000000Y-108250000D01*
X163750000Y-107500000D02*
X176925003Y-107500000D01*
%TO.N,/GPIO13*%
X174750000Y-97750000D02*
X177750000Y-100750000D01*
X173250000Y-97750000D02*
X174750000Y-97750000D01*
%TO.N,/GPIO22*%
X170000000Y-110000000D02*
X168250000Y-108250000D01*
X187000000Y-110000000D02*
X170000000Y-110000000D01*
X190250000Y-113250000D02*
X187000000Y-110000000D01*
%TO.N,/RXD*%
X162423262Y-107049000D02*
X162173262Y-107299000D01*
X177359301Y-107049000D02*
X162423262Y-107049000D01*
X179250000Y-108939699D02*
X177359301Y-107049000D01*
X179250000Y-109375000D02*
X179250000Y-108939699D01*
%TD*%
%TA.AperFunction,Conductor*%
%TO.N,GND*%
G36*
X194608039Y-91520185D02*
G01*
X194653794Y-91572989D01*
X194665000Y-91624500D01*
X194665000Y-121375500D01*
X194645315Y-121442539D01*
X194592511Y-121488294D01*
X194541000Y-121499500D01*
X193890103Y-121499500D01*
X193823064Y-121479815D01*
X193777309Y-121427011D01*
X193767365Y-121357853D01*
X193796390Y-121294297D01*
X193815792Y-121276234D01*
X193875240Y-121231730D01*
X193907546Y-121207546D01*
X193993796Y-121092331D01*
X194044091Y-120957483D01*
X194050500Y-120897873D01*
X194050499Y-119102128D01*
X194044091Y-119042517D01*
X194042810Y-119039083D01*
X193993797Y-118907671D01*
X193993793Y-118907664D01*
X193907547Y-118792455D01*
X193907544Y-118792452D01*
X193792335Y-118706206D01*
X193792328Y-118706202D01*
X193657482Y-118655908D01*
X193657483Y-118655908D01*
X193597883Y-118649501D01*
X193597881Y-118649500D01*
X193597873Y-118649500D01*
X193597864Y-118649500D01*
X191802129Y-118649500D01*
X191802123Y-118649501D01*
X191742516Y-118655908D01*
X191607671Y-118706202D01*
X191607664Y-118706206D01*
X191492455Y-118792452D01*
X191492452Y-118792455D01*
X191406206Y-118907664D01*
X191406203Y-118907669D01*
X191357189Y-119039083D01*
X191315317Y-119095016D01*
X191249853Y-119119433D01*
X191181580Y-119104581D01*
X191153326Y-119083430D01*
X191039786Y-118969890D01*
X190867820Y-118844951D01*
X190678414Y-118748444D01*
X190678413Y-118748443D01*
X190678412Y-118748443D01*
X190476243Y-118682754D01*
X190476241Y-118682753D01*
X190476240Y-118682753D01*
X190314957Y-118657208D01*
X190266287Y-118649500D01*
X190053713Y-118649500D01*
X190005042Y-118657208D01*
X189843760Y-118682753D01*
X189641585Y-118748444D01*
X189452179Y-118844951D01*
X189280213Y-118969890D01*
X189129890Y-119120213D01*
X189004949Y-119292182D01*
X189000484Y-119300946D01*
X188952509Y-119351742D01*
X188884688Y-119368536D01*
X188818553Y-119345998D01*
X188779516Y-119300946D01*
X188775050Y-119292182D01*
X188650109Y-119120213D01*
X188499786Y-118969890D01*
X188327820Y-118844951D01*
X188138414Y-118748444D01*
X188138413Y-118748443D01*
X188138412Y-118748443D01*
X187936243Y-118682754D01*
X187936241Y-118682753D01*
X187936240Y-118682753D01*
X187774957Y-118657208D01*
X187726287Y-118649500D01*
X187513713Y-118649500D01*
X187465042Y-118657208D01*
X187303760Y-118682753D01*
X187101585Y-118748444D01*
X186912179Y-118844951D01*
X186740213Y-118969890D01*
X186589890Y-119120213D01*
X186464949Y-119292182D01*
X186460484Y-119300946D01*
X186412509Y-119351742D01*
X186344688Y-119368536D01*
X186278553Y-119345998D01*
X186239516Y-119300946D01*
X186235050Y-119292182D01*
X186110109Y-119120213D01*
X185959786Y-118969890D01*
X185787820Y-118844951D01*
X185598414Y-118748444D01*
X185598413Y-118748443D01*
X185598412Y-118748443D01*
X185396243Y-118682754D01*
X185396241Y-118682753D01*
X185396240Y-118682753D01*
X185234957Y-118657208D01*
X185186287Y-118649500D01*
X184973713Y-118649500D01*
X184925042Y-118657208D01*
X184763760Y-118682753D01*
X184561585Y-118748444D01*
X184372179Y-118844951D01*
X184200213Y-118969890D01*
X184049890Y-119120213D01*
X183924949Y-119292182D01*
X183920484Y-119300946D01*
X183872509Y-119351742D01*
X183804688Y-119368536D01*
X183738553Y-119345998D01*
X183699516Y-119300946D01*
X183695050Y-119292182D01*
X183570109Y-119120213D01*
X183419786Y-118969890D01*
X183247820Y-118844951D01*
X183058414Y-118748444D01*
X183058413Y-118748443D01*
X183058412Y-118748443D01*
X182856243Y-118682754D01*
X182856241Y-118682753D01*
X182856240Y-118682753D01*
X182694957Y-118657208D01*
X182646287Y-118649500D01*
X182433713Y-118649500D01*
X182385042Y-118657208D01*
X182223760Y-118682753D01*
X182021585Y-118748444D01*
X181832179Y-118844951D01*
X181660213Y-118969890D01*
X181509890Y-119120213D01*
X181384949Y-119292182D01*
X181380484Y-119300946D01*
X181332509Y-119351742D01*
X181264688Y-119368536D01*
X181198553Y-119345998D01*
X181159516Y-119300946D01*
X181155050Y-119292182D01*
X181030109Y-119120213D01*
X180879786Y-118969890D01*
X180707820Y-118844951D01*
X180518414Y-118748444D01*
X180518413Y-118748443D01*
X180518412Y-118748443D01*
X180316243Y-118682754D01*
X180316241Y-118682753D01*
X180316240Y-118682753D01*
X180154957Y-118657208D01*
X180106287Y-118649500D01*
X179893713Y-118649500D01*
X179845042Y-118657208D01*
X179683760Y-118682753D01*
X179481585Y-118748444D01*
X179292179Y-118844951D01*
X179120213Y-118969890D01*
X178969890Y-119120213D01*
X178844949Y-119292182D01*
X178840484Y-119300946D01*
X178792509Y-119351742D01*
X178724688Y-119368536D01*
X178658553Y-119345998D01*
X178619516Y-119300946D01*
X178615050Y-119292182D01*
X178490109Y-119120213D01*
X178339786Y-118969890D01*
X178167820Y-118844951D01*
X177978414Y-118748444D01*
X177978413Y-118748443D01*
X177978412Y-118748443D01*
X177776243Y-118682754D01*
X177776241Y-118682753D01*
X177776240Y-118682753D01*
X177614957Y-118657208D01*
X177566287Y-118649500D01*
X177353713Y-118649500D01*
X177305042Y-118657208D01*
X177143760Y-118682753D01*
X176941585Y-118748444D01*
X176752179Y-118844951D01*
X176580213Y-118969890D01*
X176429890Y-119120213D01*
X176304949Y-119292182D01*
X176300484Y-119300946D01*
X176252509Y-119351742D01*
X176184688Y-119368536D01*
X176118553Y-119345998D01*
X176079516Y-119300946D01*
X176075050Y-119292182D01*
X175950109Y-119120213D01*
X175799786Y-118969890D01*
X175627820Y-118844951D01*
X175438414Y-118748444D01*
X175438413Y-118748443D01*
X175438412Y-118748443D01*
X175236243Y-118682754D01*
X175236241Y-118682753D01*
X175236240Y-118682753D01*
X175074957Y-118657208D01*
X175026287Y-118649500D01*
X174813713Y-118649500D01*
X174765042Y-118657208D01*
X174603760Y-118682753D01*
X174401585Y-118748444D01*
X174212179Y-118844951D01*
X174040213Y-118969890D01*
X173889890Y-119120213D01*
X173764949Y-119292182D01*
X173760484Y-119300946D01*
X173712509Y-119351742D01*
X173644688Y-119368536D01*
X173578553Y-119345998D01*
X173539516Y-119300946D01*
X173535050Y-119292182D01*
X173410109Y-119120213D01*
X173259786Y-118969890D01*
X173087820Y-118844951D01*
X172898414Y-118748444D01*
X172898413Y-118748443D01*
X172898412Y-118748443D01*
X172696243Y-118682754D01*
X172696241Y-118682753D01*
X172696240Y-118682753D01*
X172534957Y-118657208D01*
X172486287Y-118649500D01*
X172273713Y-118649500D01*
X172225042Y-118657208D01*
X172063760Y-118682753D01*
X171861585Y-118748444D01*
X171672179Y-118844951D01*
X171500213Y-118969890D01*
X171349890Y-119120213D01*
X171224949Y-119292182D01*
X171220484Y-119300946D01*
X171172509Y-119351742D01*
X171104688Y-119368536D01*
X171038553Y-119345998D01*
X170999516Y-119300946D01*
X170995050Y-119292182D01*
X170870109Y-119120213D01*
X170719786Y-118969890D01*
X170547820Y-118844951D01*
X170358414Y-118748444D01*
X170358413Y-118748443D01*
X170358412Y-118748443D01*
X170156243Y-118682754D01*
X170156241Y-118682753D01*
X170156240Y-118682753D01*
X169994957Y-118657208D01*
X169946287Y-118649500D01*
X169733713Y-118649500D01*
X169685042Y-118657208D01*
X169523760Y-118682753D01*
X169321585Y-118748444D01*
X169132179Y-118844951D01*
X168960213Y-118969890D01*
X168809890Y-119120213D01*
X168684949Y-119292182D01*
X168680484Y-119300946D01*
X168632509Y-119351742D01*
X168564688Y-119368536D01*
X168498553Y-119345998D01*
X168459516Y-119300946D01*
X168455050Y-119292182D01*
X168330109Y-119120213D01*
X168179786Y-118969890D01*
X168007820Y-118844951D01*
X167818414Y-118748444D01*
X167818413Y-118748443D01*
X167818412Y-118748443D01*
X167616243Y-118682754D01*
X167616241Y-118682753D01*
X167616240Y-118682753D01*
X167454957Y-118657208D01*
X167406287Y-118649500D01*
X167193713Y-118649500D01*
X167145042Y-118657208D01*
X166983760Y-118682753D01*
X166781585Y-118748444D01*
X166592179Y-118844951D01*
X166420213Y-118969890D01*
X166269890Y-119120213D01*
X166144949Y-119292182D01*
X166140484Y-119300946D01*
X166092509Y-119351742D01*
X166024688Y-119368536D01*
X165958553Y-119345998D01*
X165919516Y-119300946D01*
X165915050Y-119292182D01*
X165790109Y-119120213D01*
X165639786Y-118969890D01*
X165467820Y-118844951D01*
X165278414Y-118748444D01*
X165278413Y-118748443D01*
X165278412Y-118748443D01*
X165076243Y-118682754D01*
X165076241Y-118682753D01*
X165076240Y-118682753D01*
X164914957Y-118657208D01*
X164866287Y-118649500D01*
X164653713Y-118649500D01*
X164605042Y-118657208D01*
X164443760Y-118682753D01*
X164241585Y-118748444D01*
X164052179Y-118844951D01*
X163880213Y-118969890D01*
X163729890Y-119120213D01*
X163604949Y-119292182D01*
X163600202Y-119301499D01*
X163552227Y-119352293D01*
X163484405Y-119369087D01*
X163418271Y-119346548D01*
X163379234Y-119301495D01*
X163374626Y-119292452D01*
X163335270Y-119238282D01*
X163335269Y-119238282D01*
X162702962Y-119870590D01*
X162685925Y-119807007D01*
X162620099Y-119692993D01*
X162527007Y-119599901D01*
X162412993Y-119534075D01*
X162349409Y-119517037D01*
X162981716Y-118884728D01*
X162927550Y-118845375D01*
X162738217Y-118748904D01*
X162536129Y-118683242D01*
X162326246Y-118650000D01*
X162113754Y-118650000D01*
X161903872Y-118683242D01*
X161903869Y-118683242D01*
X161701782Y-118748904D01*
X161512439Y-118845380D01*
X161458282Y-118884727D01*
X161458282Y-118884728D01*
X162090591Y-119517037D01*
X162027007Y-119534075D01*
X161912993Y-119599901D01*
X161819901Y-119692993D01*
X161754075Y-119807007D01*
X161737037Y-119870591D01*
X161104728Y-119238282D01*
X161104727Y-119238282D01*
X161065380Y-119292440D01*
X161065376Y-119292446D01*
X161060760Y-119301505D01*
X161012781Y-119352297D01*
X160944959Y-119369087D01*
X160878826Y-119346543D01*
X160839794Y-119301493D01*
X160835051Y-119292184D01*
X160835049Y-119292181D01*
X160835048Y-119292179D01*
X160710109Y-119120213D01*
X160559786Y-118969890D01*
X160387820Y-118844951D01*
X160198414Y-118748444D01*
X160198413Y-118748443D01*
X160198412Y-118748443D01*
X159996243Y-118682754D01*
X159996241Y-118682753D01*
X159996240Y-118682753D01*
X159834957Y-118657208D01*
X159786287Y-118649500D01*
X159573713Y-118649500D01*
X159525042Y-118657208D01*
X159363760Y-118682753D01*
X159161585Y-118748444D01*
X158972179Y-118844951D01*
X158800213Y-118969890D01*
X158649890Y-119120213D01*
X158524951Y-119292179D01*
X158428444Y-119481585D01*
X158428443Y-119481587D01*
X158428443Y-119481588D01*
X158411389Y-119534075D01*
X158362753Y-119683760D01*
X158329500Y-119893713D01*
X158329500Y-120106286D01*
X158360468Y-120301814D01*
X158362754Y-120316243D01*
X158395321Y-120416474D01*
X158428444Y-120518414D01*
X158524951Y-120707820D01*
X158649890Y-120879786D01*
X158800213Y-121030109D01*
X158972179Y-121155048D01*
X158972181Y-121155049D01*
X158972184Y-121155051D01*
X159161588Y-121251557D01*
X159180092Y-121257569D01*
X159237768Y-121297006D01*
X159264966Y-121361365D01*
X159253051Y-121430211D01*
X159205807Y-121481687D01*
X159141774Y-121499500D01*
X152253751Y-121499500D01*
X152246264Y-121499274D01*
X151986339Y-121483551D01*
X151971475Y-121481746D01*
X151719034Y-121435485D01*
X151704494Y-121431901D01*
X151459480Y-121355551D01*
X151445480Y-121350242D01*
X151211444Y-121244911D01*
X151198185Y-121237952D01*
X150978556Y-121105182D01*
X150966233Y-121096676D01*
X150960683Y-121092328D01*
X150764207Y-120938398D01*
X150752999Y-120928468D01*
X150571531Y-120747000D01*
X150561601Y-120735792D01*
X150532388Y-120698504D01*
X150403319Y-120533760D01*
X150394821Y-120521449D01*
X150262044Y-120301808D01*
X150255091Y-120288562D01*
X150149755Y-120054516D01*
X150144448Y-120040519D01*
X150131822Y-120000000D01*
X150068096Y-119795498D01*
X150064514Y-119780965D01*
X150060523Y-119759188D01*
X150018253Y-119528524D01*
X150016448Y-119513660D01*
X150000726Y-119253736D01*
X150000500Y-119246249D01*
X150000500Y-116671153D01*
X155699500Y-116671153D01*
X155699500Y-116828846D01*
X155730261Y-116983489D01*
X155730264Y-116983501D01*
X155790602Y-117129172D01*
X155790609Y-117129185D01*
X155878210Y-117260288D01*
X155878213Y-117260292D01*
X155989707Y-117371786D01*
X155989711Y-117371789D01*
X156120814Y-117459390D01*
X156120827Y-117459397D01*
X156266498Y-117519735D01*
X156266503Y-117519737D01*
X156421153Y-117550499D01*
X156421156Y-117550500D01*
X156421158Y-117550500D01*
X156578844Y-117550500D01*
X156578845Y-117550499D01*
X156733497Y-117519737D01*
X156879179Y-117459394D01*
X156936044Y-117421397D01*
X157002721Y-117400520D01*
X157004935Y-117400500D01*
X173495065Y-117400500D01*
X173562104Y-117420185D01*
X173563909Y-117421366D01*
X173620821Y-117459394D01*
X173620823Y-117459395D01*
X173620827Y-117459397D01*
X173766498Y-117519735D01*
X173766503Y-117519737D01*
X173921153Y-117550499D01*
X173921156Y-117550500D01*
X173921158Y-117550500D01*
X174078844Y-117550500D01*
X174078845Y-117550499D01*
X174233497Y-117519737D01*
X174379179Y-117459394D01*
X174510289Y-117371789D01*
X174621789Y-117260289D01*
X174709394Y-117129179D01*
X174769737Y-116983497D01*
X174800500Y-116828842D01*
X174800500Y-116671158D01*
X174800500Y-116671155D01*
X174800499Y-116671153D01*
X174769738Y-116516510D01*
X174769737Y-116516503D01*
X174769735Y-116516498D01*
X174709397Y-116370827D01*
X174709390Y-116370814D01*
X174621789Y-116239711D01*
X174621786Y-116239707D01*
X174510292Y-116128213D01*
X174510288Y-116128210D01*
X174379185Y-116040609D01*
X174379172Y-116040602D01*
X174233501Y-115980264D01*
X174233489Y-115980261D01*
X174078845Y-115949500D01*
X174078842Y-115949500D01*
X173921158Y-115949500D01*
X173921155Y-115949500D01*
X173766510Y-115980261D01*
X173766498Y-115980264D01*
X173620827Y-116040602D01*
X173620820Y-116040606D01*
X173591928Y-116059911D01*
X173563955Y-116078602D01*
X173497279Y-116099480D01*
X173495065Y-116099500D01*
X157004935Y-116099500D01*
X156937896Y-116079815D01*
X156936090Y-116078633D01*
X156879179Y-116040606D01*
X156879172Y-116040602D01*
X156733501Y-115980264D01*
X156733489Y-115980261D01*
X156578845Y-115949500D01*
X156578842Y-115949500D01*
X156421158Y-115949500D01*
X156421155Y-115949500D01*
X156266510Y-115980261D01*
X156266498Y-115980264D01*
X156120827Y-116040602D01*
X156120814Y-116040609D01*
X155989711Y-116128210D01*
X155989707Y-116128213D01*
X155878213Y-116239707D01*
X155878210Y-116239711D01*
X155790609Y-116370814D01*
X155790602Y-116370827D01*
X155730264Y-116516498D01*
X155730261Y-116516510D01*
X155699500Y-116671153D01*
X150000500Y-116671153D01*
X150000500Y-111200131D01*
X150020185Y-111133092D01*
X150072989Y-111087337D01*
X150142147Y-111077393D01*
X150197383Y-111099812D01*
X150323212Y-111191232D01*
X150477555Y-111269873D01*
X150642299Y-111323402D01*
X150813389Y-111350500D01*
X150813390Y-111350500D01*
X151686610Y-111350500D01*
X151686611Y-111350500D01*
X151857701Y-111323402D01*
X152022445Y-111269873D01*
X152176788Y-111191232D01*
X152316928Y-111089414D01*
X152439414Y-110966928D01*
X152541232Y-110826788D01*
X152619873Y-110672445D01*
X152673402Y-110507701D01*
X152700500Y-110336611D01*
X152700500Y-110163389D01*
X152673402Y-109992299D01*
X152668499Y-109977212D01*
X152666505Y-109907371D01*
X152702586Y-109847539D01*
X152765287Y-109816711D01*
X152834701Y-109824676D01*
X152888790Y-109868904D01*
X152896914Y-109882597D01*
X152901859Y-109892302D01*
X153015241Y-110048359D01*
X153151641Y-110184759D01*
X153307698Y-110298141D01*
X153479571Y-110385715D01*
X153663028Y-110445324D01*
X153853551Y-110475500D01*
X153853552Y-110475500D01*
X154046448Y-110475500D01*
X154046449Y-110475500D01*
X154236972Y-110445324D01*
X154420429Y-110385715D01*
X154592302Y-110298141D01*
X154748359Y-110184759D01*
X154884759Y-110048359D01*
X154998141Y-109892302D01*
X155085715Y-109720429D01*
X155145324Y-109536972D01*
X155175500Y-109346449D01*
X155175500Y-109153551D01*
X155145324Y-108963028D01*
X155085715Y-108779571D01*
X154998141Y-108607698D01*
X154884759Y-108451641D01*
X154748359Y-108315241D01*
X154592302Y-108201859D01*
X154420429Y-108114285D01*
X154236972Y-108054676D01*
X154236970Y-108054675D01*
X154236969Y-108054675D01*
X154090614Y-108031495D01*
X154046449Y-108024500D01*
X153853551Y-108024500D01*
X153817697Y-108030178D01*
X153663030Y-108054675D01*
X153479568Y-108114286D01*
X153307697Y-108201859D01*
X153218661Y-108266547D01*
X153151641Y-108315241D01*
X153151639Y-108315243D01*
X153151638Y-108315243D01*
X153015243Y-108451638D01*
X153015243Y-108451639D01*
X153015241Y-108451641D01*
X152966547Y-108518661D01*
X152901859Y-108607697D01*
X152814286Y-108779568D01*
X152754675Y-108963030D01*
X152729723Y-109120572D01*
X152724500Y-109153551D01*
X152724500Y-109346449D01*
X152729531Y-109378211D01*
X152754675Y-109536969D01*
X152754676Y-109536973D01*
X152766063Y-109572019D01*
X152768058Y-109641860D01*
X152731977Y-109701693D01*
X152669275Y-109732520D01*
X152599861Y-109724555D01*
X152545773Y-109680326D01*
X152542401Y-109675120D01*
X152541231Y-109673211D01*
X152518453Y-109641860D01*
X152439414Y-109533072D01*
X152316928Y-109410586D01*
X152176788Y-109308768D01*
X152022445Y-109230127D01*
X151857701Y-109176598D01*
X151857699Y-109176597D01*
X151857698Y-109176597D01*
X151712188Y-109153551D01*
X151686611Y-109149500D01*
X150813389Y-109149500D01*
X150787812Y-109153551D01*
X150642302Y-109176597D01*
X150477552Y-109230128D01*
X150323208Y-109308770D01*
X150197385Y-109400186D01*
X150131579Y-109423666D01*
X150063525Y-109407841D01*
X150014830Y-109357735D01*
X150000500Y-109299868D01*
X150000500Y-104200131D01*
X150020185Y-104133092D01*
X150072989Y-104087337D01*
X150142147Y-104077393D01*
X150197383Y-104099812D01*
X150323212Y-104191232D01*
X150477555Y-104269873D01*
X150642299Y-104323402D01*
X150813389Y-104350500D01*
X150813390Y-104350500D01*
X151686610Y-104350500D01*
X151686611Y-104350500D01*
X151857701Y-104323402D01*
X152022445Y-104269873D01*
X152176788Y-104191232D01*
X152316928Y-104089414D01*
X152439414Y-103966928D01*
X152541232Y-103826788D01*
X152541239Y-103826773D01*
X152542396Y-103824887D01*
X152543029Y-103824313D01*
X152544096Y-103822846D01*
X152544404Y-103823069D01*
X152594202Y-103778005D01*
X152663130Y-103766573D01*
X152727296Y-103794222D01*
X152766329Y-103852172D01*
X152767834Y-103922026D01*
X152766064Y-103927979D01*
X152754675Y-103963032D01*
X152724500Y-104153551D01*
X152724500Y-104346448D01*
X152754675Y-104536969D01*
X152754676Y-104536972D01*
X152814285Y-104720429D01*
X152901859Y-104892302D01*
X153015241Y-105048359D01*
X153151641Y-105184759D01*
X153307698Y-105298141D01*
X153479571Y-105385715D01*
X153663028Y-105445324D01*
X153853551Y-105475500D01*
X153853552Y-105475500D01*
X154046448Y-105475500D01*
X154046449Y-105475500D01*
X154236972Y-105445324D01*
X154420429Y-105385715D01*
X154592302Y-105298141D01*
X154748359Y-105184759D01*
X154884759Y-105048359D01*
X154998141Y-104892302D01*
X155085715Y-104720429D01*
X155145324Y-104536972D01*
X155175500Y-104346449D01*
X155175500Y-104153551D01*
X155145324Y-103963028D01*
X155085715Y-103779571D01*
X154998141Y-103607698D01*
X154884759Y-103451641D01*
X154748359Y-103315241D01*
X154592302Y-103201859D01*
X154420429Y-103114285D01*
X154236972Y-103054676D01*
X154236970Y-103054675D01*
X154236969Y-103054675D01*
X154090614Y-103031495D01*
X154046449Y-103024500D01*
X153853551Y-103024500D01*
X153817697Y-103030178D01*
X153663030Y-103054675D01*
X153479568Y-103114286D01*
X153307697Y-103201859D01*
X153218661Y-103266547D01*
X153151641Y-103315241D01*
X153151639Y-103315243D01*
X153151638Y-103315243D01*
X153015243Y-103451638D01*
X153015243Y-103451639D01*
X153015241Y-103451641D01*
X152963552Y-103522785D01*
X152901857Y-103607700D01*
X152896915Y-103617400D01*
X152848940Y-103668196D01*
X152781119Y-103684990D01*
X152714984Y-103662452D01*
X152671533Y-103607736D01*
X152664562Y-103538215D01*
X152668496Y-103522797D01*
X152673402Y-103507701D01*
X152700500Y-103336611D01*
X152700500Y-103163389D01*
X152673402Y-102992299D01*
X152619873Y-102827555D01*
X152541232Y-102673212D01*
X152439414Y-102533072D01*
X152316928Y-102410586D01*
X152176788Y-102308768D01*
X152022445Y-102230127D01*
X151857701Y-102176598D01*
X151857699Y-102176597D01*
X151857698Y-102176597D01*
X151726271Y-102155781D01*
X151686611Y-102149500D01*
X150813389Y-102149500D01*
X150773728Y-102155781D01*
X150642302Y-102176597D01*
X150477552Y-102230128D01*
X150323208Y-102308770D01*
X150197385Y-102400186D01*
X150131579Y-102423666D01*
X150063525Y-102407841D01*
X150014830Y-102357735D01*
X150000500Y-102299868D01*
X150000500Y-100588885D01*
X155228192Y-100588885D01*
X155228192Y-103357538D01*
X155258953Y-103512181D01*
X155258956Y-103512193D01*
X155319294Y-103657864D01*
X155319301Y-103657877D01*
X155406902Y-103788980D01*
X155406905Y-103788984D01*
X156663181Y-105045259D01*
X156696666Y-105106582D01*
X156699500Y-105132940D01*
X156699500Y-112367059D01*
X156679815Y-112434098D01*
X156663181Y-112454740D01*
X156378213Y-112739707D01*
X156378210Y-112739711D01*
X156290609Y-112870814D01*
X156290602Y-112870827D01*
X156230264Y-113016498D01*
X156230261Y-113016510D01*
X156199500Y-113171153D01*
X156199500Y-113328846D01*
X156230261Y-113483489D01*
X156230264Y-113483501D01*
X156290602Y-113629172D01*
X156290609Y-113629185D01*
X156378210Y-113760288D01*
X156378213Y-113760292D01*
X156489707Y-113871786D01*
X156489711Y-113871789D01*
X156620814Y-113959390D01*
X156620827Y-113959397D01*
X156766498Y-114019735D01*
X156766503Y-114019737D01*
X156921153Y-114050499D01*
X156921156Y-114050500D01*
X156921158Y-114050500D01*
X157078844Y-114050500D01*
X157078845Y-114050499D01*
X157233497Y-114019737D01*
X157379179Y-113959394D01*
X157510289Y-113871789D01*
X158121789Y-113260289D01*
X158181348Y-113171153D01*
X172199500Y-113171153D01*
X172199500Y-113328846D01*
X172230261Y-113483489D01*
X172230264Y-113483501D01*
X172290602Y-113629172D01*
X172290609Y-113629185D01*
X172378210Y-113760288D01*
X172378213Y-113760292D01*
X172489707Y-113871786D01*
X172489711Y-113871789D01*
X172620814Y-113959390D01*
X172620827Y-113959397D01*
X172766498Y-114019735D01*
X172766503Y-114019737D01*
X172921153Y-114050499D01*
X172921156Y-114050500D01*
X172921158Y-114050500D01*
X173078844Y-114050500D01*
X173078845Y-114050499D01*
X173233497Y-114019737D01*
X173379179Y-113959394D01*
X173473459Y-113896398D01*
X173540136Y-113875520D01*
X173542350Y-113875500D01*
X176357017Y-113875500D01*
X176424056Y-113895185D01*
X176469811Y-113947989D01*
X176478633Y-113975305D01*
X176480261Y-113983489D01*
X176480263Y-113983497D01*
X176480263Y-113983498D01*
X176540602Y-114129172D01*
X176540609Y-114129185D01*
X176628210Y-114260288D01*
X176628213Y-114260292D01*
X176739707Y-114371786D01*
X176739711Y-114371789D01*
X176870814Y-114459390D01*
X176870827Y-114459397D01*
X177016498Y-114519735D01*
X177016503Y-114519737D01*
X177171153Y-114550499D01*
X177171156Y-114550500D01*
X177171158Y-114550500D01*
X177328844Y-114550500D01*
X177328845Y-114550499D01*
X177483497Y-114519737D01*
X177629179Y-114459394D01*
X177760289Y-114371789D01*
X177871789Y-114260289D01*
X177959394Y-114129179D01*
X178019737Y-113983497D01*
X178050500Y-113828842D01*
X178050500Y-113671158D01*
X178050500Y-113671155D01*
X178050499Y-113671153D01*
X178019738Y-113516510D01*
X178019737Y-113516503D01*
X177980242Y-113421153D01*
X177959397Y-113370827D01*
X177959390Y-113370814D01*
X177871789Y-113239711D01*
X177871786Y-113239707D01*
X177760292Y-113128213D01*
X177760288Y-113128210D01*
X177629185Y-113040609D01*
X177629172Y-113040602D01*
X177483501Y-112980264D01*
X177483489Y-112980261D01*
X177372285Y-112958141D01*
X177355528Y-112949376D01*
X177337049Y-112945356D01*
X177312010Y-112926611D01*
X177310374Y-112925756D01*
X177308795Y-112924205D01*
X177240198Y-112855608D01*
X177240178Y-112855586D01*
X177148733Y-112764141D01*
X177103325Y-112733801D01*
X177103324Y-112733800D01*
X177097509Y-112729915D01*
X177046286Y-112695688D01*
X176965792Y-112662347D01*
X176950457Y-112655995D01*
X176932453Y-112648537D01*
X176922427Y-112646543D01*
X176872029Y-112636518D01*
X176811610Y-112624500D01*
X176811607Y-112624500D01*
X176811606Y-112624500D01*
X173542350Y-112624500D01*
X173475311Y-112604815D01*
X173473459Y-112603602D01*
X173379184Y-112540609D01*
X173379172Y-112540602D01*
X173233501Y-112480264D01*
X173233489Y-112480261D01*
X173078845Y-112449500D01*
X173078842Y-112449500D01*
X172921158Y-112449500D01*
X172921155Y-112449500D01*
X172766510Y-112480261D01*
X172766498Y-112480264D01*
X172620827Y-112540602D01*
X172620814Y-112540609D01*
X172489711Y-112628210D01*
X172489707Y-112628213D01*
X172378213Y-112739707D01*
X172378210Y-112739711D01*
X172290609Y-112870814D01*
X172290602Y-112870827D01*
X172230264Y-113016498D01*
X172230261Y-113016510D01*
X172199500Y-113171153D01*
X158181348Y-113171153D01*
X158209394Y-113129179D01*
X158269738Y-112983497D01*
X158300500Y-112828842D01*
X158300500Y-112671157D01*
X158300500Y-107220153D01*
X161372762Y-107220153D01*
X161372762Y-107377846D01*
X161403523Y-107532489D01*
X161403526Y-107532501D01*
X161463864Y-107678172D01*
X161463871Y-107678185D01*
X161523675Y-107767687D01*
X161544553Y-107834364D01*
X161535134Y-107884030D01*
X161480264Y-108016498D01*
X161480261Y-108016510D01*
X161449500Y-108171153D01*
X161449500Y-108328846D01*
X161480261Y-108483489D01*
X161480264Y-108483501D01*
X161540602Y-108629172D01*
X161540609Y-108629185D01*
X161628210Y-108760288D01*
X161628213Y-108760292D01*
X161739707Y-108871786D01*
X161739711Y-108871789D01*
X161870814Y-108959390D01*
X161870827Y-108959397D01*
X162016498Y-109019735D01*
X162016503Y-109019737D01*
X162171153Y-109050499D01*
X162171156Y-109050500D01*
X162171158Y-109050500D01*
X162328844Y-109050500D01*
X162328845Y-109050499D01*
X162483497Y-109019737D01*
X162629179Y-108959394D01*
X162723459Y-108896398D01*
X162790136Y-108875520D01*
X162792350Y-108875500D01*
X163061607Y-108875500D01*
X163122029Y-108863481D01*
X163182452Y-108851463D01*
X163215792Y-108837652D01*
X163296286Y-108804312D01*
X163347509Y-108770084D01*
X163398733Y-108735858D01*
X163485858Y-108648733D01*
X163485859Y-108648731D01*
X163492925Y-108641665D01*
X163492927Y-108641661D01*
X163972771Y-108161819D01*
X164034094Y-108128334D01*
X164060452Y-108125500D01*
X167325500Y-108125500D01*
X167392539Y-108145185D01*
X167438294Y-108197989D01*
X167449500Y-108249500D01*
X167449500Y-108328846D01*
X167480261Y-108483489D01*
X167480264Y-108483501D01*
X167540602Y-108629172D01*
X167540609Y-108629185D01*
X167628210Y-108760288D01*
X167628213Y-108760292D01*
X167739707Y-108871786D01*
X167739711Y-108871789D01*
X167870814Y-108959390D01*
X167870821Y-108959394D01*
X167994057Y-109010439D01*
X168048458Y-109054278D01*
X168070524Y-109120572D01*
X168053246Y-109188271D01*
X168002109Y-109235882D01*
X167994056Y-109239560D01*
X167870824Y-109290604D01*
X167870814Y-109290609D01*
X167739711Y-109378210D01*
X167739707Y-109378213D01*
X167628213Y-109489707D01*
X167628210Y-109489711D01*
X167540609Y-109620814D01*
X167540602Y-109620827D01*
X167480264Y-109766498D01*
X167480261Y-109766510D01*
X167449500Y-109921153D01*
X167449500Y-110078846D01*
X167480261Y-110233489D01*
X167480264Y-110233501D01*
X167540602Y-110379172D01*
X167540609Y-110379185D01*
X167628210Y-110510288D01*
X167628213Y-110510292D01*
X167739707Y-110621786D01*
X167739711Y-110621789D01*
X167870814Y-110709390D01*
X167870827Y-110709397D01*
X167958230Y-110745599D01*
X168016503Y-110769737D01*
X168127716Y-110791858D01*
X168189623Y-110824241D01*
X168191203Y-110825793D01*
X168511016Y-111145606D01*
X168511045Y-111145637D01*
X168601263Y-111235855D01*
X168601267Y-111235858D01*
X168703707Y-111304307D01*
X168703713Y-111304310D01*
X168703714Y-111304311D01*
X168817548Y-111351463D01*
X168877971Y-111363481D01*
X168938393Y-111375500D01*
X168938394Y-111375500D01*
X182939548Y-111375500D01*
X183006587Y-111395185D01*
X183027229Y-111411819D01*
X185174205Y-113558795D01*
X185207690Y-113620118D01*
X185208141Y-113622285D01*
X185230261Y-113733489D01*
X185230264Y-113733501D01*
X185290602Y-113879172D01*
X185290609Y-113879185D01*
X185378210Y-114010288D01*
X185378213Y-114010292D01*
X185489707Y-114121786D01*
X185489711Y-114121789D01*
X185620814Y-114209390D01*
X185620827Y-114209397D01*
X185766498Y-114269735D01*
X185766503Y-114269737D01*
X185921153Y-114300499D01*
X185921156Y-114300500D01*
X185921158Y-114300500D01*
X186078844Y-114300500D01*
X186078845Y-114300499D01*
X186233497Y-114269737D01*
X186379179Y-114209394D01*
X186510289Y-114121789D01*
X186621789Y-114010289D01*
X186709394Y-113879179D01*
X186769737Y-113733497D01*
X186800500Y-113578842D01*
X186800500Y-113421158D01*
X186800500Y-113421155D01*
X186800499Y-113421153D01*
X186769738Y-113266510D01*
X186769737Y-113266503D01*
X186767163Y-113260288D01*
X186709397Y-113120827D01*
X186709390Y-113120814D01*
X186621789Y-112989711D01*
X186621786Y-112989707D01*
X186510292Y-112878213D01*
X186510288Y-112878210D01*
X186379185Y-112790609D01*
X186379172Y-112790602D01*
X186233501Y-112730264D01*
X186233489Y-112730261D01*
X186122285Y-112708141D01*
X186060374Y-112675756D01*
X186058795Y-112674205D01*
X184221771Y-110837181D01*
X184188286Y-110775858D01*
X184193270Y-110706166D01*
X184235142Y-110650233D01*
X184300606Y-110625816D01*
X184309452Y-110625500D01*
X186689548Y-110625500D01*
X186756587Y-110645185D01*
X186777229Y-110661819D01*
X189424205Y-113308795D01*
X189457690Y-113370118D01*
X189458141Y-113372285D01*
X189480261Y-113483489D01*
X189480264Y-113483501D01*
X189540602Y-113629172D01*
X189540609Y-113629185D01*
X189628210Y-113760288D01*
X189628213Y-113760292D01*
X189739707Y-113871786D01*
X189739711Y-113871789D01*
X189870814Y-113959390D01*
X189870827Y-113959397D01*
X190016498Y-114019735D01*
X190016503Y-114019737D01*
X190171153Y-114050499D01*
X190171156Y-114050500D01*
X190171158Y-114050500D01*
X190328844Y-114050500D01*
X190328845Y-114050499D01*
X190483497Y-114019737D01*
X190629179Y-113959394D01*
X190760289Y-113871789D01*
X190871789Y-113760289D01*
X190959394Y-113629179D01*
X191019737Y-113483497D01*
X191050500Y-113328842D01*
X191050500Y-113171158D01*
X191050500Y-113171155D01*
X191050499Y-113171153D01*
X191024531Y-113040606D01*
X191019737Y-113016503D01*
X191019735Y-113016498D01*
X190959397Y-112870827D01*
X190959390Y-112870814D01*
X190871789Y-112739711D01*
X190871786Y-112739707D01*
X190760292Y-112628213D01*
X190760288Y-112628210D01*
X190629185Y-112540609D01*
X190629172Y-112540602D01*
X190483501Y-112480264D01*
X190483489Y-112480261D01*
X190372285Y-112458141D01*
X190310374Y-112425756D01*
X190308795Y-112424205D01*
X187493150Y-109608560D01*
X187485860Y-109601270D01*
X187485858Y-109601267D01*
X187398733Y-109514142D01*
X187347509Y-109479915D01*
X187296286Y-109445688D01*
X187296283Y-109445686D01*
X187296280Y-109445685D01*
X187222603Y-109415168D01*
X187222601Y-109415167D01*
X187215792Y-109412347D01*
X187182452Y-109398537D01*
X187122029Y-109386518D01*
X187117306Y-109385578D01*
X187117304Y-109385578D01*
X187061610Y-109374500D01*
X187061607Y-109374500D01*
X187061606Y-109374500D01*
X180167848Y-109374500D01*
X180100809Y-109354815D01*
X180055054Y-109302011D01*
X180046231Y-109274692D01*
X180019738Y-109141508D01*
X180019737Y-109141507D01*
X180019737Y-109141503D01*
X179996453Y-109085289D01*
X179959397Y-108995827D01*
X179959395Y-108995823D01*
X179959394Y-108995821D01*
X179886984Y-108887452D01*
X179883793Y-108879748D01*
X179880211Y-108876036D01*
X179868472Y-108842760D01*
X179861656Y-108808494D01*
X179861654Y-108808486D01*
X179854016Y-108770084D01*
X179851463Y-108757247D01*
X179804311Y-108643413D01*
X179804310Y-108643412D01*
X179804307Y-108643406D01*
X179735858Y-108540966D01*
X179735855Y-108540962D01*
X179645637Y-108450744D01*
X179645606Y-108450715D01*
X177853250Y-106658359D01*
X177845161Y-106650270D01*
X177845159Y-106650267D01*
X177758034Y-106563142D01*
X177677595Y-106509394D01*
X177661292Y-106498500D01*
X177655586Y-106494687D01*
X177616123Y-106478342D01*
X177575093Y-106461347D01*
X177541753Y-106447537D01*
X177481330Y-106435518D01*
X177476607Y-106434578D01*
X177476605Y-106434578D01*
X177420911Y-106423500D01*
X177420908Y-106423500D01*
X177420907Y-106423500D01*
X162484868Y-106423500D01*
X162361655Y-106423500D01*
X162361650Y-106423500D01*
X162240817Y-106447535D01*
X162240809Y-106447537D01*
X162207470Y-106461347D01*
X162140562Y-106489061D01*
X162100396Y-106497050D01*
X162100480Y-106497903D01*
X162094415Y-106498500D01*
X161939772Y-106529261D01*
X161939760Y-106529264D01*
X161794089Y-106589602D01*
X161794076Y-106589609D01*
X161662973Y-106677210D01*
X161662969Y-106677213D01*
X161551475Y-106788707D01*
X161551472Y-106788711D01*
X161463871Y-106919814D01*
X161463864Y-106919827D01*
X161403526Y-107065498D01*
X161403523Y-107065510D01*
X161372762Y-107220153D01*
X158300500Y-107220153D01*
X158300500Y-106041872D01*
X158302883Y-106017680D01*
X158330500Y-105878844D01*
X158330500Y-105721155D01*
X158302883Y-105582318D01*
X158300500Y-105558126D01*
X158300500Y-104671157D01*
X158300499Y-104671153D01*
X158273809Y-104536972D01*
X158269738Y-104516503D01*
X158209394Y-104370821D01*
X158209392Y-104370818D01*
X158209390Y-104370814D01*
X158121789Y-104239711D01*
X158121786Y-104239707D01*
X157885289Y-104003211D01*
X156865511Y-102983433D01*
X156832026Y-102922110D01*
X156829192Y-102895752D01*
X156829192Y-101050672D01*
X156837836Y-101021231D01*
X156844360Y-100991245D01*
X156848114Y-100986229D01*
X156848877Y-100983633D01*
X156865511Y-100962991D01*
X157021683Y-100806819D01*
X157083006Y-100773334D01*
X157109364Y-100770500D01*
X160858844Y-100770500D01*
X160858845Y-100770499D01*
X161013497Y-100739737D01*
X161159179Y-100679394D01*
X161171513Y-100671153D01*
X166699500Y-100671153D01*
X166699500Y-100828846D01*
X166730261Y-100983489D01*
X166730264Y-100983501D01*
X166790602Y-101129172D01*
X166790609Y-101129185D01*
X166878210Y-101260288D01*
X166878213Y-101260292D01*
X169239707Y-103621786D01*
X169239711Y-103621789D01*
X169370814Y-103709390D01*
X169370818Y-103709392D01*
X169370821Y-103709394D01*
X169516503Y-103769738D01*
X169613242Y-103788980D01*
X169671153Y-103800499D01*
X169671157Y-103800500D01*
X169671158Y-103800500D01*
X173328844Y-103800500D01*
X173328845Y-103800499D01*
X173405152Y-103785320D01*
X173483488Y-103769739D01*
X173483489Y-103769738D01*
X173483497Y-103769737D01*
X173507155Y-103759937D01*
X173554604Y-103750500D01*
X179073920Y-103750500D01*
X179171462Y-103731096D01*
X179218913Y-103721658D01*
X179355495Y-103665084D01*
X179420291Y-103621789D01*
X179420294Y-103621786D01*
X179420296Y-103621786D01*
X179449547Y-103602240D01*
X179478416Y-103582952D01*
X180065297Y-102996069D01*
X180105522Y-102969192D01*
X180129179Y-102959394D01*
X180260289Y-102871789D01*
X180371789Y-102760289D01*
X180459394Y-102629179D01*
X180519737Y-102483497D01*
X180550500Y-102328842D01*
X180550500Y-102171158D01*
X180550500Y-102171155D01*
X180550499Y-102171153D01*
X180519738Y-102016510D01*
X180519737Y-102016503D01*
X180469194Y-101894480D01*
X180459397Y-101870827D01*
X180459390Y-101870814D01*
X180371789Y-101739711D01*
X180371786Y-101739707D01*
X180260292Y-101628213D01*
X180260288Y-101628210D01*
X180129185Y-101540609D01*
X180129172Y-101540602D01*
X179983501Y-101480264D01*
X179983489Y-101480261D01*
X179828845Y-101449500D01*
X179828842Y-101449500D01*
X179671158Y-101449500D01*
X179671155Y-101449500D01*
X179516510Y-101480261D01*
X179516498Y-101480264D01*
X179370827Y-101540602D01*
X179370814Y-101540609D01*
X179239711Y-101628210D01*
X179239707Y-101628213D01*
X179128213Y-101739707D01*
X179128207Y-101739715D01*
X179040607Y-101870818D01*
X179040606Y-101870819D01*
X179030805Y-101894480D01*
X179003927Y-101934703D01*
X178725449Y-102213182D01*
X178664129Y-102246666D01*
X178637770Y-102249500D01*
X173554604Y-102249500D01*
X173507155Y-102240062D01*
X173483497Y-102230263D01*
X173483493Y-102230262D01*
X173483488Y-102230260D01*
X173328845Y-102199500D01*
X173328842Y-102199500D01*
X170132940Y-102199500D01*
X170065901Y-102179815D01*
X170045259Y-102163181D01*
X168010292Y-100128213D01*
X168010288Y-100128210D01*
X167879185Y-100040609D01*
X167879172Y-100040602D01*
X167733501Y-99980264D01*
X167733489Y-99980261D01*
X167578845Y-99949500D01*
X167578842Y-99949500D01*
X167421158Y-99949500D01*
X167421155Y-99949500D01*
X167266510Y-99980261D01*
X167266498Y-99980264D01*
X167120827Y-100040602D01*
X167120814Y-100040609D01*
X166989711Y-100128210D01*
X166989707Y-100128213D01*
X166878213Y-100239707D01*
X166878210Y-100239711D01*
X166790609Y-100370814D01*
X166790602Y-100370827D01*
X166730264Y-100516498D01*
X166730261Y-100516510D01*
X166699500Y-100671153D01*
X161171513Y-100671153D01*
X161290289Y-100591789D01*
X161293193Y-100588885D01*
X161304694Y-100577385D01*
X162154421Y-99727655D01*
X163010286Y-98871790D01*
X163010289Y-98871789D01*
X163121789Y-98760289D01*
X163209394Y-98629179D01*
X163269737Y-98483497D01*
X163274532Y-98459394D01*
X163291957Y-98371791D01*
X163291957Y-98371788D01*
X163300500Y-98328843D01*
X163300500Y-98171155D01*
X163300499Y-98171153D01*
X163269738Y-98016510D01*
X163269737Y-98016503D01*
X163256062Y-97983489D01*
X163209397Y-97870827D01*
X163209390Y-97870814D01*
X163121789Y-97739711D01*
X163121784Y-97739705D01*
X163053232Y-97671153D01*
X172449500Y-97671153D01*
X172449500Y-97828846D01*
X172480261Y-97983489D01*
X172480264Y-97983501D01*
X172540602Y-98129172D01*
X172540609Y-98129185D01*
X172628210Y-98260288D01*
X172628213Y-98260292D01*
X172739709Y-98371788D01*
X172870814Y-98459390D01*
X172870827Y-98459397D01*
X173016498Y-98519735D01*
X173016503Y-98519737D01*
X173171153Y-98550499D01*
X173171156Y-98550500D01*
X173171158Y-98550500D01*
X173328844Y-98550500D01*
X173328845Y-98550499D01*
X173483497Y-98519737D01*
X173629179Y-98459394D01*
X173723459Y-98396398D01*
X173790136Y-98375520D01*
X173792350Y-98375500D01*
X174439548Y-98375500D01*
X174506587Y-98395185D01*
X174527229Y-98411819D01*
X176924205Y-100808796D01*
X176957690Y-100870119D01*
X176958141Y-100872286D01*
X176980261Y-100983489D01*
X176980264Y-100983501D01*
X177040602Y-101129172D01*
X177040609Y-101129185D01*
X177128210Y-101260288D01*
X177128213Y-101260292D01*
X177239707Y-101371786D01*
X177239711Y-101371789D01*
X177370814Y-101459390D01*
X177370827Y-101459397D01*
X177516498Y-101519735D01*
X177516503Y-101519737D01*
X177671153Y-101550499D01*
X177671156Y-101550500D01*
X177671158Y-101550500D01*
X177828844Y-101550500D01*
X177828845Y-101550499D01*
X177983497Y-101519737D01*
X178129179Y-101459394D01*
X178260289Y-101371789D01*
X178371789Y-101260289D01*
X178459394Y-101129179D01*
X178519737Y-100983497D01*
X178550500Y-100828842D01*
X178550500Y-100671158D01*
X178550500Y-100671155D01*
X178550499Y-100671153D01*
X178519738Y-100516510D01*
X178519737Y-100516503D01*
X178485659Y-100434230D01*
X178459397Y-100370827D01*
X178459390Y-100370814D01*
X178371789Y-100239711D01*
X178371786Y-100239707D01*
X178260292Y-100128213D01*
X178260288Y-100128210D01*
X178129185Y-100040609D01*
X178129172Y-100040602D01*
X177983501Y-99980264D01*
X177983489Y-99980261D01*
X177872286Y-99958141D01*
X177810375Y-99925756D01*
X177808796Y-99924205D01*
X175245822Y-97361232D01*
X175235859Y-97351269D01*
X175235858Y-97351267D01*
X175148733Y-97264142D01*
X175097509Y-97229915D01*
X175046286Y-97195688D01*
X175046283Y-97195686D01*
X175046280Y-97195685D01*
X174972603Y-97165168D01*
X174972601Y-97165167D01*
X174965792Y-97162347D01*
X174932452Y-97148537D01*
X174872029Y-97136518D01*
X174867306Y-97135578D01*
X174867304Y-97135578D01*
X174811610Y-97124500D01*
X174811607Y-97124500D01*
X174811606Y-97124500D01*
X173792350Y-97124500D01*
X173725311Y-97104815D01*
X173723459Y-97103602D01*
X173629184Y-97040609D01*
X173629172Y-97040602D01*
X173483501Y-96980264D01*
X173483489Y-96980261D01*
X173328845Y-96949500D01*
X173328842Y-96949500D01*
X173171158Y-96949500D01*
X173171155Y-96949500D01*
X173016510Y-96980261D01*
X173016498Y-96980264D01*
X172870827Y-97040602D01*
X172870814Y-97040609D01*
X172739711Y-97128210D01*
X172739707Y-97128213D01*
X172628213Y-97239707D01*
X172628210Y-97239711D01*
X172540609Y-97370814D01*
X172540602Y-97370827D01*
X172480264Y-97516498D01*
X172480261Y-97516510D01*
X172449500Y-97671153D01*
X163053232Y-97671153D01*
X163010292Y-97628213D01*
X163010288Y-97628210D01*
X162879185Y-97540609D01*
X162879172Y-97540602D01*
X162733501Y-97480264D01*
X162733489Y-97480261D01*
X162578845Y-97449500D01*
X162578842Y-97449500D01*
X162421157Y-97449500D01*
X162421155Y-97449500D01*
X162266508Y-97480261D01*
X162266498Y-97480264D01*
X162120827Y-97540602D01*
X162120814Y-97540609D01*
X161989712Y-97628209D01*
X161946769Y-97671153D01*
X161878211Y-97739711D01*
X160484741Y-99133181D01*
X160423418Y-99166666D01*
X160397060Y-99169500D01*
X156647579Y-99169500D01*
X156492934Y-99200261D01*
X156492922Y-99200264D01*
X156347251Y-99260602D01*
X156347238Y-99260609D01*
X156216135Y-99348210D01*
X156216131Y-99348213D01*
X155640141Y-99924205D01*
X155518403Y-100045943D01*
X155462652Y-100101694D01*
X155406901Y-100157444D01*
X155319301Y-100288546D01*
X155319294Y-100288559D01*
X155258956Y-100434230D01*
X155258953Y-100434242D01*
X155228192Y-100588885D01*
X150000500Y-100588885D01*
X150000500Y-96171153D01*
X155199500Y-96171153D01*
X155199500Y-96328846D01*
X155230261Y-96483489D01*
X155230264Y-96483501D01*
X155290602Y-96629172D01*
X155290609Y-96629185D01*
X155378210Y-96760288D01*
X155378213Y-96760292D01*
X155489707Y-96871786D01*
X155489711Y-96871789D01*
X155620814Y-96959390D01*
X155620827Y-96959397D01*
X155766498Y-97019735D01*
X155766503Y-97019737D01*
X155921153Y-97050499D01*
X155921156Y-97050500D01*
X155921158Y-97050500D01*
X156078844Y-97050500D01*
X156078845Y-97050499D01*
X156233497Y-97019737D01*
X156379179Y-96959394D01*
X156510289Y-96871789D01*
X156621789Y-96760289D01*
X156709394Y-96629179D01*
X156769737Y-96483497D01*
X156791858Y-96372282D01*
X156824240Y-96310375D01*
X156825676Y-96308912D01*
X157297773Y-95836816D01*
X157359095Y-95803334D01*
X157385453Y-95800500D01*
X190032650Y-95800500D01*
X190099689Y-95820185D01*
X190101541Y-95821398D01*
X190195821Y-95884394D01*
X190195823Y-95884395D01*
X190195827Y-95884397D01*
X190341498Y-95944735D01*
X190341503Y-95944737D01*
X190496153Y-95975499D01*
X190496156Y-95975500D01*
X190496158Y-95975500D01*
X190653844Y-95975500D01*
X190653845Y-95975499D01*
X190808497Y-95944737D01*
X190954179Y-95884394D01*
X191085289Y-95796789D01*
X191196789Y-95685289D01*
X191284394Y-95554179D01*
X191344737Y-95408497D01*
X191375500Y-95253842D01*
X191375500Y-95096158D01*
X191375500Y-95096155D01*
X191375499Y-95096153D01*
X191344738Y-94941510D01*
X191344737Y-94941503D01*
X191307043Y-94850500D01*
X191284397Y-94795827D01*
X191284390Y-94795814D01*
X191196789Y-94664711D01*
X191196786Y-94664707D01*
X191158668Y-94626589D01*
X191125183Y-94565266D01*
X191130167Y-94495574D01*
X191158664Y-94451231D01*
X191230104Y-94379792D01*
X191355051Y-94207816D01*
X191359514Y-94199054D01*
X191407488Y-94148259D01*
X191475308Y-94131463D01*
X191541444Y-94153999D01*
X191580486Y-94199056D01*
X191584951Y-94207820D01*
X191709890Y-94379786D01*
X191860213Y-94530109D01*
X192032179Y-94655048D01*
X192032181Y-94655049D01*
X192032184Y-94655051D01*
X192221588Y-94751557D01*
X192423757Y-94817246D01*
X192633713Y-94850500D01*
X192633714Y-94850500D01*
X192846286Y-94850500D01*
X192846287Y-94850500D01*
X193056243Y-94817246D01*
X193258412Y-94751557D01*
X193447816Y-94655051D01*
X193495113Y-94620688D01*
X193619786Y-94530109D01*
X193619788Y-94530106D01*
X193619792Y-94530104D01*
X193770104Y-94379792D01*
X193770106Y-94379788D01*
X193770109Y-94379786D01*
X193895048Y-94207820D01*
X193895047Y-94207820D01*
X193895051Y-94207816D01*
X193991557Y-94018412D01*
X194057246Y-93816243D01*
X194090500Y-93606287D01*
X194090500Y-93393713D01*
X194057246Y-93183757D01*
X193991557Y-92981588D01*
X193895051Y-92792184D01*
X193895049Y-92792181D01*
X193895048Y-92792179D01*
X193770109Y-92620213D01*
X193619786Y-92469890D01*
X193447820Y-92344951D01*
X193258414Y-92248444D01*
X193258413Y-92248443D01*
X193258412Y-92248443D01*
X193056243Y-92182754D01*
X193056241Y-92182753D01*
X193056240Y-92182753D01*
X192894957Y-92157208D01*
X192846287Y-92149500D01*
X192633713Y-92149500D01*
X192585042Y-92157208D01*
X192423760Y-92182753D01*
X192221585Y-92248444D01*
X192032179Y-92344951D01*
X191860213Y-92469890D01*
X191709890Y-92620213D01*
X191584949Y-92792182D01*
X191580484Y-92800946D01*
X191532509Y-92851742D01*
X191464688Y-92868536D01*
X191398553Y-92845998D01*
X191359516Y-92800946D01*
X191355050Y-92792182D01*
X191230109Y-92620213D01*
X191079786Y-92469890D01*
X190907820Y-92344951D01*
X190718414Y-92248444D01*
X190718413Y-92248443D01*
X190718412Y-92248443D01*
X190516243Y-92182754D01*
X190516241Y-92182753D01*
X190516240Y-92182753D01*
X190354957Y-92157208D01*
X190306287Y-92149500D01*
X190093713Y-92149500D01*
X190045042Y-92157208D01*
X189883760Y-92182753D01*
X189681585Y-92248444D01*
X189492179Y-92344951D01*
X189320213Y-92469890D01*
X189169890Y-92620213D01*
X189044949Y-92792182D01*
X189040484Y-92800946D01*
X188992509Y-92851742D01*
X188924688Y-92868536D01*
X188858553Y-92845998D01*
X188819516Y-92800946D01*
X188815050Y-92792182D01*
X188690109Y-92620213D01*
X188539786Y-92469890D01*
X188367820Y-92344951D01*
X188178414Y-92248444D01*
X188178413Y-92248443D01*
X188178412Y-92248443D01*
X187976243Y-92182754D01*
X187976241Y-92182753D01*
X187976240Y-92182753D01*
X187814957Y-92157208D01*
X187766287Y-92149500D01*
X187553713Y-92149500D01*
X187505042Y-92157208D01*
X187343760Y-92182753D01*
X187141585Y-92248444D01*
X186952179Y-92344951D01*
X186780213Y-92469890D01*
X186629890Y-92620213D01*
X186504949Y-92792182D01*
X186500484Y-92800946D01*
X186452509Y-92851742D01*
X186384688Y-92868536D01*
X186318553Y-92845998D01*
X186279516Y-92800946D01*
X186275050Y-92792182D01*
X186150109Y-92620213D01*
X185999786Y-92469890D01*
X185827820Y-92344951D01*
X185638414Y-92248444D01*
X185638413Y-92248443D01*
X185638412Y-92248443D01*
X185436243Y-92182754D01*
X185436241Y-92182753D01*
X185436240Y-92182753D01*
X185274957Y-92157208D01*
X185226287Y-92149500D01*
X185013713Y-92149500D01*
X184965042Y-92157208D01*
X184803760Y-92182753D01*
X184601585Y-92248444D01*
X184412179Y-92344951D01*
X184240213Y-92469890D01*
X184089890Y-92620213D01*
X183964949Y-92792182D01*
X183960484Y-92800946D01*
X183912509Y-92851742D01*
X183844688Y-92868536D01*
X183778553Y-92845998D01*
X183739516Y-92800946D01*
X183735050Y-92792182D01*
X183610109Y-92620213D01*
X183459786Y-92469890D01*
X183287820Y-92344951D01*
X183098414Y-92248444D01*
X183098413Y-92248443D01*
X183098412Y-92248443D01*
X182896243Y-92182754D01*
X182896241Y-92182753D01*
X182896240Y-92182753D01*
X182734957Y-92157208D01*
X182686287Y-92149500D01*
X182473713Y-92149500D01*
X182425042Y-92157208D01*
X182263760Y-92182753D01*
X182061585Y-92248444D01*
X181872179Y-92344951D01*
X181700213Y-92469890D01*
X181549890Y-92620213D01*
X181424949Y-92792182D01*
X181420484Y-92800946D01*
X181372509Y-92851742D01*
X181304688Y-92868536D01*
X181238553Y-92845998D01*
X181199516Y-92800946D01*
X181195050Y-92792182D01*
X181070109Y-92620213D01*
X180919786Y-92469890D01*
X180747820Y-92344951D01*
X180558414Y-92248444D01*
X180558413Y-92248443D01*
X180558412Y-92248443D01*
X180356243Y-92182754D01*
X180356241Y-92182753D01*
X180356240Y-92182753D01*
X180194957Y-92157208D01*
X180146287Y-92149500D01*
X179933713Y-92149500D01*
X179885042Y-92157208D01*
X179723760Y-92182753D01*
X179521585Y-92248444D01*
X179332179Y-92344951D01*
X179160213Y-92469890D01*
X179009890Y-92620213D01*
X178884949Y-92792182D01*
X178880484Y-92800946D01*
X178832509Y-92851742D01*
X178764688Y-92868536D01*
X178698553Y-92845998D01*
X178659516Y-92800946D01*
X178655050Y-92792182D01*
X178530109Y-92620213D01*
X178379786Y-92469890D01*
X178207820Y-92344951D01*
X178018414Y-92248444D01*
X178018413Y-92248443D01*
X178018412Y-92248443D01*
X177816243Y-92182754D01*
X177816241Y-92182753D01*
X177816240Y-92182753D01*
X177654957Y-92157208D01*
X177606287Y-92149500D01*
X177393713Y-92149500D01*
X177345042Y-92157208D01*
X177183760Y-92182753D01*
X176981585Y-92248444D01*
X176792179Y-92344951D01*
X176620213Y-92469890D01*
X176469890Y-92620213D01*
X176344949Y-92792182D01*
X176340484Y-92800946D01*
X176292509Y-92851742D01*
X176224688Y-92868536D01*
X176158553Y-92845998D01*
X176119516Y-92800946D01*
X176115050Y-92792182D01*
X175990109Y-92620213D01*
X175839786Y-92469890D01*
X175667820Y-92344951D01*
X175478414Y-92248444D01*
X175478413Y-92248443D01*
X175478412Y-92248443D01*
X175276243Y-92182754D01*
X175276241Y-92182753D01*
X175276240Y-92182753D01*
X175114957Y-92157208D01*
X175066287Y-92149500D01*
X174853713Y-92149500D01*
X174805042Y-92157208D01*
X174643760Y-92182753D01*
X174441585Y-92248444D01*
X174252179Y-92344951D01*
X174080213Y-92469890D01*
X173929890Y-92620213D01*
X173804949Y-92792182D01*
X173800484Y-92800946D01*
X173752509Y-92851742D01*
X173684688Y-92868536D01*
X173618553Y-92845998D01*
X173579516Y-92800946D01*
X173575050Y-92792182D01*
X173450109Y-92620213D01*
X173299786Y-92469890D01*
X173127820Y-92344951D01*
X172938414Y-92248444D01*
X172938413Y-92248443D01*
X172938412Y-92248443D01*
X172736243Y-92182754D01*
X172736241Y-92182753D01*
X172736240Y-92182753D01*
X172574957Y-92157208D01*
X172526287Y-92149500D01*
X172313713Y-92149500D01*
X172265042Y-92157208D01*
X172103760Y-92182753D01*
X171901585Y-92248444D01*
X171712179Y-92344951D01*
X171540213Y-92469890D01*
X171389890Y-92620213D01*
X171264949Y-92792182D01*
X171260484Y-92800946D01*
X171212509Y-92851742D01*
X171144688Y-92868536D01*
X171078553Y-92845998D01*
X171039516Y-92800946D01*
X171035050Y-92792182D01*
X170910109Y-92620213D01*
X170759786Y-92469890D01*
X170587820Y-92344951D01*
X170398414Y-92248444D01*
X170398413Y-92248443D01*
X170398412Y-92248443D01*
X170196243Y-92182754D01*
X170196241Y-92182753D01*
X170196240Y-92182753D01*
X170034957Y-92157208D01*
X169986287Y-92149500D01*
X169773713Y-92149500D01*
X169725042Y-92157208D01*
X169563760Y-92182753D01*
X169361585Y-92248444D01*
X169172179Y-92344951D01*
X169000213Y-92469890D01*
X168849890Y-92620213D01*
X168724949Y-92792182D01*
X168720484Y-92800946D01*
X168672509Y-92851742D01*
X168604688Y-92868536D01*
X168538553Y-92845998D01*
X168499516Y-92800946D01*
X168495050Y-92792182D01*
X168370109Y-92620213D01*
X168219786Y-92469890D01*
X168047820Y-92344951D01*
X167858414Y-92248444D01*
X167858413Y-92248443D01*
X167858412Y-92248443D01*
X167656243Y-92182754D01*
X167656241Y-92182753D01*
X167656240Y-92182753D01*
X167494957Y-92157208D01*
X167446287Y-92149500D01*
X167233713Y-92149500D01*
X167185042Y-92157208D01*
X167023760Y-92182753D01*
X166821585Y-92248444D01*
X166632179Y-92344951D01*
X166460213Y-92469890D01*
X166309890Y-92620213D01*
X166184949Y-92792182D01*
X166180484Y-92800946D01*
X166132509Y-92851742D01*
X166064688Y-92868536D01*
X165998553Y-92845998D01*
X165959516Y-92800946D01*
X165955050Y-92792182D01*
X165830109Y-92620213D01*
X165679786Y-92469890D01*
X165507820Y-92344951D01*
X165318414Y-92248444D01*
X165318413Y-92248443D01*
X165318412Y-92248443D01*
X165116243Y-92182754D01*
X165116241Y-92182753D01*
X165116240Y-92182753D01*
X164954957Y-92157208D01*
X164906287Y-92149500D01*
X164693713Y-92149500D01*
X164645042Y-92157208D01*
X164483760Y-92182753D01*
X164281585Y-92248444D01*
X164092179Y-92344951D01*
X163920213Y-92469890D01*
X163769890Y-92620213D01*
X163644949Y-92792182D01*
X163640202Y-92801499D01*
X163592227Y-92852293D01*
X163524405Y-92869087D01*
X163458271Y-92846548D01*
X163419234Y-92801495D01*
X163414626Y-92792452D01*
X163375270Y-92738282D01*
X163375269Y-92738282D01*
X162742962Y-93370589D01*
X162725925Y-93307007D01*
X162660099Y-93192993D01*
X162567007Y-93099901D01*
X162452993Y-93034075D01*
X162389409Y-93017037D01*
X163021716Y-92384728D01*
X162967550Y-92345375D01*
X162778217Y-92248904D01*
X162576129Y-92183242D01*
X162366246Y-92150000D01*
X162153754Y-92150000D01*
X161943872Y-92183242D01*
X161943869Y-92183242D01*
X161741782Y-92248904D01*
X161552439Y-92345380D01*
X161498282Y-92384727D01*
X161498282Y-92384728D01*
X162130591Y-93017037D01*
X162067007Y-93034075D01*
X161952993Y-93099901D01*
X161859901Y-93192993D01*
X161794075Y-93307007D01*
X161777037Y-93370591D01*
X161106818Y-92700372D01*
X161073333Y-92639049D01*
X161073330Y-92639036D01*
X161070499Y-92626015D01*
X161070499Y-92602128D01*
X161064091Y-92542517D01*
X161035639Y-92466233D01*
X161013798Y-92407673D01*
X161013793Y-92407664D01*
X160927547Y-92292455D01*
X160927544Y-92292452D01*
X160812335Y-92206206D01*
X160812328Y-92206202D01*
X160677482Y-92155908D01*
X160677483Y-92155908D01*
X160617883Y-92149501D01*
X160617881Y-92149500D01*
X160617873Y-92149500D01*
X160617864Y-92149500D01*
X158822129Y-92149500D01*
X158822123Y-92149501D01*
X158762516Y-92155908D01*
X158627671Y-92206202D01*
X158627664Y-92206206D01*
X158512455Y-92292452D01*
X158512452Y-92292455D01*
X158426206Y-92407664D01*
X158426202Y-92407671D01*
X158375908Y-92542517D01*
X158369501Y-92602116D01*
X158369500Y-92602135D01*
X158369500Y-94397870D01*
X158369501Y-94397879D01*
X158371046Y-94412248D01*
X158358639Y-94481007D01*
X158311027Y-94532143D01*
X158247756Y-94549500D01*
X157142741Y-94549500D01*
X157142721Y-94549499D01*
X157136607Y-94549499D01*
X157013394Y-94549499D01*
X156912597Y-94569548D01*
X156912592Y-94569548D01*
X156892548Y-94573536D01*
X156892544Y-94573537D01*
X156847178Y-94592330D01*
X156847175Y-94592331D01*
X156778714Y-94620688D01*
X156778712Y-94620689D01*
X156676267Y-94689141D01*
X156676263Y-94689144D01*
X155941203Y-95424205D01*
X155879880Y-95457690D01*
X155877714Y-95458141D01*
X155766508Y-95480261D01*
X155766498Y-95480264D01*
X155620827Y-95540602D01*
X155620814Y-95540609D01*
X155489711Y-95628210D01*
X155489707Y-95628213D01*
X155378213Y-95739707D01*
X155378210Y-95739711D01*
X155290609Y-95870814D01*
X155290602Y-95870827D01*
X155230264Y-96016498D01*
X155230261Y-96016510D01*
X155199500Y-96171153D01*
X150000500Y-96171153D01*
X150000500Y-93753750D01*
X150000726Y-93746263D01*
X150016448Y-93486339D01*
X150018253Y-93471475D01*
X150048393Y-93307007D01*
X150064515Y-93219026D01*
X150068095Y-93204505D01*
X150144451Y-92959471D01*
X150149753Y-92945489D01*
X150255095Y-92711430D01*
X150262040Y-92698197D01*
X150394826Y-92478542D01*
X150403313Y-92466246D01*
X150561608Y-92264198D01*
X150571523Y-92253007D01*
X150753007Y-92071523D01*
X150764198Y-92061608D01*
X150966246Y-91903313D01*
X150978542Y-91894826D01*
X151198197Y-91762040D01*
X151211430Y-91755095D01*
X151445489Y-91649753D01*
X151459471Y-91644451D01*
X151704505Y-91568095D01*
X151719026Y-91564515D01*
X151971476Y-91518252D01*
X151986335Y-91516448D01*
X152246264Y-91500726D01*
X152253751Y-91500500D01*
X152315892Y-91500500D01*
X194541000Y-91500500D01*
X194608039Y-91520185D01*
G37*
%TD.AperFunction*%
%TA.AperFunction,Conductor*%
G36*
X161754075Y-120192993D02*
G01*
X161819901Y-120307007D01*
X161912993Y-120400099D01*
X162027007Y-120465925D01*
X162090590Y-120482962D01*
X161458282Y-121115269D01*
X161458282Y-121115270D01*
X161512449Y-121154624D01*
X161701782Y-121251095D01*
X161721706Y-121257569D01*
X161779381Y-121297006D01*
X161806580Y-121361365D01*
X161794665Y-121430211D01*
X161747421Y-121481687D01*
X161683388Y-121499500D01*
X160218226Y-121499500D01*
X160151187Y-121479815D01*
X160105432Y-121427011D01*
X160095488Y-121357853D01*
X160124513Y-121294297D01*
X160179906Y-121257569D01*
X160198412Y-121251557D01*
X160387816Y-121155051D01*
X160442572Y-121115269D01*
X160559786Y-121030109D01*
X160559788Y-121030106D01*
X160559792Y-121030104D01*
X160710104Y-120879792D01*
X160710106Y-120879788D01*
X160710109Y-120879786D01*
X160795890Y-120761717D01*
X160835051Y-120707816D01*
X160839793Y-120698508D01*
X160887763Y-120647711D01*
X160955583Y-120630911D01*
X161021719Y-120653445D01*
X161060763Y-120698500D01*
X161065373Y-120707547D01*
X161104728Y-120761716D01*
X161737037Y-120129408D01*
X161754075Y-120192993D01*
G37*
%TD.AperFunction*%
%TA.AperFunction,Conductor*%
G36*
X163335270Y-120761717D02*
G01*
X163335270Y-120761716D01*
X163374622Y-120707555D01*
X163379232Y-120698507D01*
X163427205Y-120647709D01*
X163495025Y-120630912D01*
X163561161Y-120653447D01*
X163600204Y-120698504D01*
X163604949Y-120707817D01*
X163729890Y-120879786D01*
X163880213Y-121030109D01*
X164052179Y-121155048D01*
X164052181Y-121155049D01*
X164052184Y-121155051D01*
X164241588Y-121251557D01*
X164260092Y-121257569D01*
X164317768Y-121297006D01*
X164344966Y-121361365D01*
X164333051Y-121430211D01*
X164285807Y-121481687D01*
X164221774Y-121499500D01*
X162756612Y-121499500D01*
X162689573Y-121479815D01*
X162643818Y-121427011D01*
X162633874Y-121357853D01*
X162662899Y-121294297D01*
X162718294Y-121257569D01*
X162738217Y-121251095D01*
X162927554Y-121154622D01*
X162981716Y-121115270D01*
X162981717Y-121115270D01*
X162349408Y-120482962D01*
X162412993Y-120465925D01*
X162527007Y-120400099D01*
X162620099Y-120307007D01*
X162685925Y-120192993D01*
X162702962Y-120129409D01*
X163335270Y-120761717D01*
G37*
%TD.AperFunction*%
%TD*%
M02*
