M48
; DRILL file {KiCad 9.0.3} date 2026-08-16T19:58:22+0400
; FORMAT={-:-/ absolute / metric / decimal}
; #@! TF.CreationDate,2026-08-16T19:58:22+04:00
; #@! TF.GenerationSoftware,Kicad,Pcbnew,9.0.3
; #@! TF.FileFunction,MixedPlating,1,2
FMAT,2
METRIC
; #@! TA.AperFunction,Plated,PTH,ComponentDrill
T1C0.200
; #@! TA.AperFunction,Plated,PTH,ViaDrill
T2C0.300
; #@! TA.AperFunction,Plated,PTH,ComponentDrill
T3C0.600
; #@! TA.AperFunction,Plated,PTH,ComponentDrill
T4C0.850
; #@! TA.AperFunction,Plated,PTH,ComponentDrill
T5C1.000
%
G90
G05
T1
X184.25Y-105.262
X184.25Y-106.787
X185.012Y-104.5
X185.012Y-106.025
X185.012Y-107.55
X185.775Y-105.262
X185.775Y-106.787
X186.537Y-104.5
X186.537Y-106.025
X186.537Y-107.55
X187.3Y-105.262
X187.3Y-106.787
T2
X152.141Y-118.573
X152.145Y-94.645
X155.5Y-108.25
X156.0Y-96.25
X156.029Y-100.668
X156.5Y-116.75
X157.0Y-113.25
X157.53Y-105.8
X159.741Y-98.684
X160.5Y-111.75
X162.0Y-101.25
X162.173Y-107.299
X162.25Y-108.25
X162.5Y-98.25
X163.055Y-100.609
X163.359Y-118.517
X163.513Y-97.025
X165.494Y-111.152
X165.856Y-115.69
X167.5Y-100.75
X168.25Y-108.25
X168.25Y-110.0
X168.966Y-100.87
X168.98Y-106.29
X169.0Y-104.75
X170.161Y-98.421
X173.0Y-113.25
X173.25Y-97.75
X173.25Y-103.0
X174.0Y-116.75
X174.019Y-101.016
X177.25Y-113.75
X177.75Y-100.75
X178.0Y-108.575
X179.25Y-109.375
X179.75Y-102.25
X186.0Y-113.5
X190.25Y-113.25
X190.575Y-95.175
X193.75Y-99.5
X193.75Y-100.925
X193.75Y-102.35
X193.75Y-103.775
X193.75Y-105.2
X193.75Y-106.625
X193.75Y-108.05
X193.75Y-109.475
X193.75Y-110.9
X193.75Y-112.325
X193.75Y-113.75
T4
X153.95Y-104.25
X153.95Y-109.25
T5
X159.68Y-120.0
X159.72Y-93.5
X162.22Y-120.0
X162.26Y-93.5
X164.76Y-120.0
X164.8Y-93.5
X167.3Y-120.0
X167.34Y-93.5
X169.84Y-120.0
X169.88Y-93.5
X172.38Y-120.0
X172.42Y-93.5
X174.92Y-120.0
X174.96Y-93.5
X177.46Y-120.0
X177.5Y-93.5
X180.0Y-120.0
X180.04Y-93.5
X182.54Y-120.0
X182.58Y-93.5
X185.08Y-120.0
X185.12Y-93.5
X187.62Y-120.0
X187.66Y-93.5
X190.16Y-120.0
X190.2Y-93.5
X192.7Y-120.0
X192.74Y-93.5
T3
G00X150.9Y-103.25
M15
G01X151.6Y-103.25
M16
G05
G00X151.6Y-110.25
M15
G01X150.9Y-110.25
M16
G05
M30
